<svg width="20" height="20" viewBox="0 0 27 28" fill="none" xmlns="http://www.w3.org/2000/svg">
<path d="M13.5625 0C6.07212 0 0 6.07212 0 13.5625C0 21.0529 6.07212 27.125 13.5625 27.125C21.0529 27.125 27.125 21.0529 27.125 13.5625C27.125 6.07212 21.0529 0 13.5625 0ZM19.9683 18.9631C19.8812 19.0652 17.793 21.464 13.9608 21.464C9.3292 21.464 6.05932 18.0044 6.05932 13.5033C6.05932 9.05702 9.45016 5.66103 13.9213 5.66103C17.583 5.66103 19.4975 7.7017 19.5772 7.78859C19.6754 7.89561 19.7353 8.03217 19.7475 8.17689C19.7598 8.3216 19.7237 8.46629 19.6449 8.58829L18.421 10.4835C18.1996 10.8262 17.7224 10.8855 17.4238 10.609C17.4111 10.5973 15.973 9.30305 14.0398 9.30305C11.5178 9.30305 9.99748 11.1392 9.99748 13.4638C9.99748 15.6295 11.3928 17.8219 14.0595 17.8219C16.1757 17.8219 17.6295 16.2722 17.6439 16.2565C17.9246 15.9522 18.4128 15.9813 18.6561 16.3141L19.9985 18.1501C20.0856 18.2692 20.13 18.4143 20.1245 18.5618C20.1191 18.7093 20.064 18.8507 19.9683 18.9631Z" fill="black"/>
</svg>
