<svg width="256" height="97" viewBox="0 0 256 97" fill="none" xmlns="http://www.w3.org/2000/svg">
<path d="M8.23617 86.0768C10.1459 86.0768 11.6612 85.528 12.7818 84.43C13.902 83.3324 14.4624 81.7984 14.4624 79.828C14.4624 77.858 13.902 76.324 12.7818 75.2261C11.6612 74.1284 10.1459 73.5792 8.23617 73.5792H5.25842V86.0768H8.23617ZM3.36346 71.7519H8.23617C9.89037 71.7519 11.3341 72.0943 12.5675 72.7784C13.8004 73.4629 14.7479 74.4139 15.4099 75.632C16.0715 76.8503 16.4025 78.249 16.4025 79.828C16.4025 81.4071 16.0715 82.8057 15.4099 84.024C14.7479 85.2422 13.8004 86.1935 12.5675 86.8777C11.3341 87.5622 9.89037 87.9041 8.23617 87.9041H3.36346V71.7519Z" fill="#676C72"/>
<path d="M26.9372 80.9335C26.9068 80.4524 26.7715 79.9712 26.5311 79.4898C26.2904 79.0086 25.9108 78.6026 25.3919 78.2716C24.873 77.9409 24.2223 77.7753 23.4406 77.7753C22.5382 77.7753 21.7748 78.065 21.1509 78.6438C20.5266 79.2229 20.1166 79.9861 19.9214 80.9335H26.9372ZM20.6658 87.4756C19.7935 86.9494 19.1128 86.2235 18.6243 85.2987C18.1353 84.3737 17.8911 83.3325 17.8911 82.1743C17.8911 81.0615 18.1202 80.0389 18.5791 79.1063C19.0377 78.1739 19.688 77.4295 20.5305 76.8729C21.3726 76.3167 22.35 76.0383 23.4631 76.0383C24.5911 76.0383 25.5685 76.2903 26.3958 76.794C27.2227 77.298 27.8582 77.9935 28.302 78.8806C28.7454 79.7682 28.9675 80.7834 28.9675 81.9261C28.9675 82.1517 28.9449 82.3473 28.8998 82.5126H19.8085C19.8537 83.385 20.0642 84.122 20.4402 84.7234C20.816 85.3251 21.2936 85.7763 21.8727 86.0769C22.4515 86.3779 23.0571 86.5281 23.6887 86.5281C25.1624 86.5281 26.2978 85.8365 27.0951 84.4527L28.7193 85.2423C28.223 86.175 27.5498 86.9116 26.7003 87.453C25.8504 87.9944 24.8241 88.2651 23.621 88.2651C22.5231 88.2651 21.5378 88.0018 20.6658 87.4756Z" fill="#676C72"/>
<path d="M29.7117 76.3993H31.7646L35.3289 85.6484H35.374L38.9834 76.3993H40.9911L36.2989 87.9043H34.3588L29.7117 76.3993Z" fill="#676C72"/>
<path d="M50.6687 80.9335C50.6384 80.4524 50.5031 79.9712 50.2627 79.4898C50.0219 79.0086 49.6423 78.6026 49.1235 78.2716C48.6046 77.9409 47.9539 77.7753 47.1721 77.7753C46.2698 77.7753 45.5063 78.065 44.8824 78.6438C44.2582 79.2229 43.8482 79.9861 43.653 80.9335H50.6687ZM44.3974 87.4756C43.525 86.9494 42.8444 86.2235 42.3558 85.2987C41.8669 84.3737 41.6227 83.3325 41.6227 82.1743C41.6227 81.0615 41.8518 80.0389 42.3107 79.1063C42.7693 78.1739 43.4196 77.4295 44.262 76.8729C45.1041 76.3167 46.0816 76.0383 47.1947 76.0383C48.3226 76.0383 49.3001 76.2903 50.1273 76.794C50.9543 77.298 51.5898 77.9935 52.0335 78.8806C52.477 79.7682 52.699 80.7834 52.699 81.9261C52.699 82.1517 52.6765 82.3473 52.6313 82.5126H43.5401C43.5853 83.385 43.7957 84.122 44.1718 84.7234C44.5476 85.3251 45.0252 85.7763 45.6043 86.0769C46.1831 86.3779 46.7886 86.5281 47.4203 86.5281C48.894 86.5281 50.0294 85.8365 50.8266 84.4527L52.4509 85.2423C51.9546 86.175 51.2814 86.9116 50.4319 87.453C49.582 87.9944 48.5556 88.2651 47.3526 88.2651C46.2546 88.2651 45.2694 88.0018 44.3974 87.4756Z" fill="#676C72"/>
<path d="M54.9321 71.7519H56.8496V87.9041H54.9321V71.7519Z" fill="#676C72"/>
<path d="M66.8547 85.998C67.4638 85.6448 67.9524 85.1372 68.321 84.4753C68.6893 83.8136 68.8737 83.0392 68.8737 82.1517C68.8737 81.2646 68.6893 80.4901 68.321 79.8281C67.9524 79.1665 67.4638 78.659 66.8547 78.3054C66.2456 77.9522 65.5875 77.7753 64.8808 77.7753C64.1737 77.7753 63.5121 77.9522 62.8957 78.3054C62.2788 78.659 61.7863 79.1665 61.418 79.8281C61.0493 80.4901 60.8654 81.2646 60.8654 82.1517C60.8654 83.0392 61.0493 83.8136 61.418 84.4753C61.7863 85.1372 62.2788 85.6448 62.8957 85.998C63.5121 86.3515 64.1737 86.5281 64.8808 86.5281C65.5875 86.5281 66.2456 86.3515 66.8547 85.998ZM61.8353 87.453C60.933 86.9116 60.2298 86.175 59.7261 85.2423C59.222 84.3099 58.9704 83.2796 58.9704 82.1517C58.9704 81.0237 59.222 79.9938 59.7261 79.0611C60.2298 78.1288 60.933 77.3918 61.8353 76.8505C62.7377 76.309 63.7528 76.0383 64.8808 76.0383C66.0088 76.0383 67.0239 76.309 67.9263 76.8505C68.8286 77.3918 69.5314 78.1288 70.0355 79.0611C70.5392 79.9938 70.7912 81.0237 70.7912 82.1517C70.7912 83.2796 70.5392 84.3099 70.0355 85.2423C69.5314 86.175 68.8286 86.9116 67.9263 87.453C67.0239 87.9944 66.0088 88.2651 64.8808 88.2651C63.7528 88.2651 62.7377 87.9944 61.8353 87.453Z" fill="#676C72"/>
<path d="M80.3111 85.9867C80.8976 85.6257 81.3675 85.1107 81.721 84.4413C82.0742 83.7724 82.2512 83.0089 82.2512 82.1517C82.2512 81.2944 82.0742 80.5312 81.721 79.8619C81.3675 79.1929 80.8976 78.6775 80.3111 78.3166C79.7246 77.9557 79.1003 77.7753 78.4387 77.7753C77.7767 77.7753 77.1529 77.9557 76.5663 78.3166C75.9798 78.6775 75.5135 79.1891 75.1677 79.8506C74.8215 80.5125 74.6489 81.2796 74.6489 82.1517C74.6489 83.0241 74.8215 83.7911 75.1677 84.4526C75.5135 85.1146 75.9798 85.6257 76.5663 85.9867C77.1529 86.3475 77.7767 86.528 78.4387 86.528C79.1003 86.528 79.7246 86.3475 80.3111 85.9867ZM72.8215 76.3992H74.6489V78.1136H74.7391C75.0848 77.5271 75.6076 77.0346 76.3069 76.636C77.0062 76.2377 77.7919 76.0382 78.6643 76.0382C79.6869 76.0382 80.6191 76.3016 81.4616 76.8277C82.3037 77.3544 82.9653 78.0836 83.4468 79.016C83.9279 79.9487 84.1687 80.9937 84.1687 82.1517C84.1687 83.3247 83.9279 84.3736 83.4468 85.2986C82.9653 86.2235 82.3037 86.9493 81.4616 87.4755C80.6191 88.0018 79.6869 88.2651 78.6643 88.2651C77.7919 88.2651 77.0062 88.0655 76.3069 87.6672C75.6076 87.269 75.0848 86.7839 74.7391 86.2122H74.6489L74.7391 87.7914V92.7769H72.8215V76.3992Z" fill="#676C72"/>
<path d="M94.8388 80.9335C94.8085 80.4524 94.6731 79.9712 94.4327 79.4898C94.192 79.0086 93.8124 78.6026 93.2935 78.2716C92.7746 77.9409 92.124 77.7753 91.3422 77.7753C90.4398 77.7753 89.6764 78.065 89.0525 78.6438C88.4282 79.2229 88.0183 79.9861 87.823 80.9335H94.8388ZM88.5674 87.4756C87.6951 86.9494 87.0144 86.2235 86.5259 85.2987C86.037 84.3737 85.7927 83.3325 85.7927 82.1743C85.7927 81.0615 86.0218 80.0389 86.4807 79.1063C86.9393 78.1739 87.5897 77.4295 88.4321 76.8729C89.2742 76.3167 90.2516 76.0383 91.3647 76.0383C92.4927 76.0383 93.4701 76.2903 94.2974 76.794C95.1243 77.298 95.7598 77.9935 96.2036 78.8806C96.647 79.7682 96.8691 80.7834 96.8691 81.9261C96.8691 82.1517 96.8465 82.3473 96.8014 82.5126H87.7102C87.7553 83.385 87.9658 84.122 88.3418 84.7234C88.7176 85.3251 89.1952 85.7763 89.7743 86.0769C90.3531 86.3779 90.9587 86.5281 91.5903 86.5281C93.064 86.5281 94.1994 85.8365 94.9967 84.4527L96.6209 85.2423C96.1246 86.175 95.4514 86.9116 94.6019 87.453C93.7521 87.9944 92.7257 88.2651 91.5226 88.2651C90.4247 88.2651 89.4395 88.0018 88.5674 87.4756Z" fill="#676C72"/>
<path d="M99.1022 76.3993H100.929V78.2491H101.02C101.245 77.6175 101.681 77.0912 102.328 76.67C102.975 76.2491 103.651 76.0384 104.358 76.0384C104.885 76.0384 105.336 76.1212 105.712 76.2865V78.3394C105.23 78.0989 104.689 77.9784 104.088 77.9784C103.531 77.9784 103.02 78.1367 102.554 78.4532C102.087 78.7698 101.715 79.1955 101.437 79.7307C101.159 80.2656 101.02 80.8423 101.02 81.4602V87.9043H99.1022V76.3993Z" fill="#676C72"/>
<path d="M113.54 87.1146C112.487 86.3476 111.765 85.2725 111.374 83.8887L113.201 83.1443C113.457 84.1069 113.931 84.8964 114.622 85.5129C115.314 86.1297 116.126 86.4378 117.059 86.4378C117.991 86.4378 118.781 86.1862 119.428 85.6821C120.074 85.1784 120.398 84.4904 120.398 83.618C120.398 82.8661 120.123 82.2458 119.574 81.7569C119.025 81.2683 118.127 80.8133 116.878 80.3921L115.863 80.0312C114.72 79.6251 113.788 79.0914 113.066 78.4294C112.344 77.7679 111.983 76.8504 111.983 75.6772C111.983 74.9103 112.194 74.1997 112.615 73.5454C113.036 72.8912 113.622 72.3689 114.374 71.9777C115.126 71.5867 115.968 71.3911 116.901 71.3911C117.833 71.3911 118.645 71.5642 119.337 71.9099C120.029 72.256 120.582 72.6769 120.995 73.1733C121.409 73.6695 121.698 74.1585 121.864 74.6396L120.059 75.4066C119.909 74.8504 119.566 74.3463 119.033 73.8952C118.499 73.444 117.796 73.2183 116.923 73.2183C116.096 73.2183 115.389 73.4517 114.803 73.9176C114.216 74.384 113.923 74.9706 113.923 75.6772C113.923 76.3089 114.171 76.8242 114.668 77.2226C115.164 77.6212 115.916 77.9934 116.923 78.3392L117.984 78.7002C119.352 79.1964 120.42 79.8168 121.187 80.5613C121.954 81.3057 122.338 82.3173 122.338 83.5954C122.338 84.6331 122.07 85.5055 121.537 86.2122C121.003 86.9193 120.33 87.4382 119.518 87.7688C118.706 88.0995 117.871 88.2651 117.014 88.2651C115.75 88.2651 114.592 87.8816 113.54 87.1146Z" fill="#676C72"/>
<path d="M127.334 88.0356C126.936 87.8827 126.601 87.6758 126.331 87.4153C126.029 87.1245 125.804 86.7875 125.654 86.4047C125.503 86.0219 125.428 85.5549 125.428 85.0036V78.1362H123.42V76.3992H125.428V73.1507H127.346V76.3992H130.143V78.1362H127.346V84.5461C127.346 85.1918 127.466 85.6683 127.707 85.9757C127.992 86.3142 128.406 86.483 128.947 86.483C129.383 86.483 129.805 86.3554 130.211 86.0995V87.9718C129.985 88.0769 129.755 88.1523 129.523 88.1974C129.289 88.2425 128.992 88.2651 128.631 88.2651C128.165 88.2651 127.733 88.1882 127.334 88.0356Z" fill="#676C72"/>
<path d="M133.47 87.0469C132.741 86.2348 132.376 85.0995 132.376 83.6406V76.3992H134.294V83.3473C134.294 84.4453 134.542 85.25 135.038 85.7611C135.534 86.2725 136.203 86.5281 137.046 86.5281C137.692 86.5281 138.268 86.3554 138.772 86.0092C139.275 85.6634 139.666 85.2123 139.945 84.6557C140.223 84.0995 140.362 83.513 140.362 82.8961V76.3992H142.279V87.9042H140.452V86.2348H140.362C140.046 86.8065 139.542 87.2877 138.851 87.6786C138.159 88.0695 137.422 88.2651 136.64 88.2651C135.256 88.2651 134.2 87.8591 133.47 87.0469Z" fill="#676C72"/>
<path d="M151.991 85.9867C152.57 85.6257 153.036 85.1146 153.39 84.4526C153.743 83.7911 153.92 83.0241 153.92 82.1517C153.92 81.2796 153.743 80.5126 153.39 79.8507C153.036 79.1891 152.57 78.6775 151.991 78.3167C151.412 77.9557 150.784 77.7753 150.107 77.7753C149.445 77.7753 148.822 77.9557 148.235 78.3167C147.648 78.6775 147.178 79.1929 146.825 79.8619C146.472 80.5313 146.295 81.2944 146.295 82.1517C146.295 83.0089 146.472 83.7724 146.825 84.4414C147.178 85.1107 147.648 85.6257 148.235 85.9867C148.822 86.3476 149.445 86.5281 150.107 86.5281C150.784 86.5281 151.412 86.3476 151.991 85.9867ZM147.096 87.4755C146.261 86.9494 145.603 86.2235 145.122 85.2986C144.64 84.3737 144.4 83.3247 144.4 82.1517C144.4 80.9937 144.64 79.9487 145.122 79.016C145.603 78.0836 146.261 77.3544 147.096 76.8278C147.93 76.3016 148.859 76.0382 149.882 76.0382C150.769 76.0382 151.559 76.2377 152.25 76.636C152.942 77.0347 153.469 77.5271 153.83 78.1136H153.92L153.83 76.512V71.7521H155.747V87.9042H153.92V86.2122H153.83C153.469 86.7839 152.942 87.269 152.25 87.6673C151.559 88.0655 150.769 88.2651 149.882 88.2651C148.859 88.2651 147.93 88.0018 147.096 87.4755Z" fill="#676C72"/>
<path d="M166.914 80.9335C166.884 80.4524 166.748 79.9712 166.508 79.4898C166.267 79.0086 165.887 78.6026 165.369 78.2716C164.85 77.9409 164.199 77.7753 163.417 77.7753C162.515 77.7753 161.751 78.065 161.127 78.6438C160.503 79.2229 160.093 79.9861 159.898 80.9335H166.914ZM160.642 87.4756C159.77 86.9494 159.089 86.2235 158.601 85.2987C158.112 84.3737 157.868 83.3325 157.868 82.1743C157.868 81.0615 158.097 80.0389 158.556 79.1063C159.014 78.1739 159.665 77.4295 160.507 76.8729C161.349 76.3167 162.327 76.0383 163.44 76.0383C164.568 76.0383 165.545 76.2903 166.372 76.794C167.199 77.298 167.835 77.9935 168.279 78.8806C168.722 79.7682 168.944 80.7834 168.944 81.9261C168.944 82.1517 168.922 82.3473 168.876 82.5126H159.785C159.83 83.385 160.041 84.122 160.417 84.7234C160.793 85.3251 161.27 85.7763 161.849 86.0769C162.428 86.3779 163.034 86.5281 163.665 86.5281C165.139 86.5281 166.274 85.8365 167.072 84.4527L168.696 85.2423C168.2 86.175 167.526 86.9116 166.677 87.453C165.827 87.9944 164.801 88.2651 163.598 88.2651C162.5 88.2651 161.514 88.0018 160.642 87.4756Z" fill="#676C72"/>
<path d="M171.177 76.3993H173.004V78.0912H173.095C173.41 77.5198 173.914 77.0348 174.606 76.6362C175.298 76.2378 176.035 76.0384 176.817 76.0384C178.2 76.0384 179.257 76.4409 179.986 77.2453C180.716 78.05 181.08 79.144 181.08 80.5276V87.9043H179.163V80.8208C179.163 79.7532 178.907 78.9787 178.396 78.4972C177.884 78.0161 177.185 77.7754 176.298 77.7754C175.681 77.7754 175.128 77.9484 174.64 78.2942C174.151 78.6404 173.771 79.0951 173.501 79.659C173.23 80.223 173.095 80.8134 173.095 81.4299V87.9043H171.177V76.3993Z" fill="#676C72"/>
<path d="M186.393 88.0356C185.994 87.8827 185.66 87.6758 185.389 87.4153C185.088 87.1245 184.862 86.7875 184.712 86.4047C184.562 86.0219 184.487 85.5549 184.487 85.0036V78.1362H182.479V76.3992H184.487V73.1507H186.404V76.3992H189.202V78.1362H186.404V84.5461C186.404 85.1918 186.524 85.6683 186.765 85.9757C187.051 86.3142 187.465 86.483 188.006 86.483C188.442 86.483 188.863 86.3554 189.269 86.0995V87.9718C189.044 88.0769 188.814 88.1523 188.581 88.1974C188.348 88.2425 188.051 88.2651 187.69 88.2651C187.224 88.2651 186.791 88.1882 186.393 88.0356Z" fill="#676C72"/>
<path d="M200.007 87.1597C198.729 86.423 197.725 85.4114 196.996 84.1256C196.266 82.8397 195.902 81.4072 195.902 79.8281C195.902 78.249 196.266 76.8165 196.996 75.5307C197.725 74.2449 198.729 73.2336 200.007 72.4965C201.285 71.7598 202.707 71.3911 204.271 71.3911C205.474 71.3911 206.575 71.6206 207.576 72.0792C208.576 72.5381 209.444 73.1884 210.181 74.0305L208.805 75.3615C208.188 74.6248 207.516 74.0834 206.786 73.7373C206.057 73.3915 205.218 73.2183 204.271 73.2183C203.098 73.2183 202.022 73.493 201.045 74.0417C200.067 74.591 199.289 75.3654 198.71 76.3654C198.131 77.3657 197.842 78.5197 197.842 79.8281C197.842 81.1365 198.131 82.2909 198.71 83.2909C199.289 84.2912 200.067 85.0657 201.045 85.6145C202.022 86.1636 203.098 86.4379 204.271 86.4379C206.226 86.4379 207.888 85.6335 209.256 84.0241L210.655 85.3776C209.903 86.2651 208.978 86.968 207.88 87.4868C206.782 88.0057 205.579 88.2651 204.271 88.2651C202.707 88.2651 201.285 87.8967 200.007 87.1597Z" fill="#676C72"/>
<path d="M212.798 71.7519H214.716V87.9041H212.798V71.7519Z" fill="#676C72"/>
<path d="M218.562 87.0469C217.832 86.2348 217.468 85.0995 217.468 83.6406V76.3992H219.385V83.3473C219.385 84.4453 219.634 85.25 220.13 85.7611C220.626 86.2725 221.295 86.5281 222.138 86.5281C222.784 86.5281 223.359 86.3554 223.863 86.0092C224.367 85.6634 224.758 85.2123 225.036 84.6557C225.314 84.0995 225.454 83.513 225.454 82.8961V76.3992H227.371V87.9042H225.544V86.2348H225.454C225.138 86.8065 224.634 87.2877 223.942 87.6786C223.25 88.0695 222.513 88.2651 221.731 88.2651C220.348 88.2651 219.291 87.8591 218.562 87.0469Z" fill="#676C72"/>
<path d="M237.703 85.9867C238.289 85.6257 238.759 85.1107 239.113 84.4414C239.466 83.7724 239.643 83.0089 239.643 82.1517C239.643 81.2944 239.466 80.5313 239.113 79.8619C238.759 79.1929 238.289 78.6775 237.703 78.3167C237.116 77.9557 236.492 77.7753 235.831 77.7753C235.169 77.7753 234.545 77.9557 233.958 78.3167C233.372 78.6775 232.905 79.1891 232.559 79.8507C232.213 80.5126 232.041 81.2796 232.041 82.1517C232.041 83.0241 232.213 83.7911 232.559 84.4526C232.905 85.1146 233.372 85.6257 233.958 85.9867C234.545 86.3476 235.169 86.5281 235.831 86.5281C236.492 86.5281 237.116 86.3476 237.703 85.9867ZM233.699 87.6673C232.999 87.269 232.477 86.7839 232.131 86.2122H232.041V87.9042H230.213V71.7521H232.131V76.512L232.041 78.1136H232.131C232.477 77.5271 232.999 77.0347 233.699 76.636C234.398 76.2377 235.184 76.0382 236.056 76.0382C237.079 76.0382 238.011 76.3016 238.853 76.8278C239.696 77.3544 240.357 78.0836 240.839 79.016C241.32 79.9487 241.561 80.9937 241.561 82.1517C241.561 83.3247 241.32 84.3737 240.839 85.2986C240.357 86.2235 239.696 86.9494 238.853 87.4755C238.011 88.0018 237.079 88.2651 236.056 88.2651C235.184 88.2651 234.398 88.0655 233.699 87.6673Z" fill="#676C72"/>
<path d="M244.606 87.3966C243.779 86.8178 243.192 86.0769 242.846 85.1745L244.561 84.4075C244.846 85.0994 245.271 85.6334 245.835 86.0092C246.399 86.3853 247.02 86.5732 247.697 86.5732C248.418 86.5732 249.035 86.4266 249.546 86.1333C250.057 85.8399 250.313 85.4227 250.313 84.8813C250.313 84.4001 250.11 84.0128 249.704 83.7195C249.298 83.4262 248.659 83.1745 247.787 82.9638L246.388 82.6028C245.471 82.3773 244.719 81.9938 244.132 81.4523C243.546 80.9109 243.252 80.2116 243.252 79.3544C243.252 78.6927 243.452 78.1101 243.85 77.606C244.249 77.1024 244.779 76.715 245.441 76.4442C246.102 76.1735 246.817 76.0382 247.584 76.0382C248.591 76.0382 249.49 76.2564 250.28 76.6924C251.069 77.1288 251.629 77.7379 251.96 78.5196L250.291 79.2866C249.779 78.2641 248.87 77.7527 247.561 77.7527C246.93 77.7527 246.377 77.8993 245.903 78.1926C245.429 78.4858 245.192 78.8581 245.192 79.3092C245.192 79.7305 245.358 80.0727 245.689 80.3356C246.019 80.599 246.516 80.8133 247.178 80.9786L248.847 81.4071C249.975 81.6931 250.824 82.1178 251.396 82.6818C251.968 83.2457 252.253 83.9337 252.253 84.7459C252.253 85.453 252.05 86.0733 251.644 86.607C251.238 87.141 250.689 87.551 249.998 87.8365C249.306 88.1219 248.539 88.2651 247.697 88.2651C246.463 88.2651 245.433 87.9754 244.606 87.3966Z" fill="#676C72"/>
<path d="M104.807 23.9463L119.067 15.7129C122.424 13.7755 123.573 9.48388 121.636 6.12798C119.698 2.77216 115.407 1.62181 112.051 3.55967L87.4094 17.7866L104.807 23.9463Z" fill="#EA4335"/>
<path d="M115.553 45.1074C117.978 45.1074 120.336 43.8488 121.636 41.5979C123.573 38.242 122.424 33.9504 119.068 32.0129L94.4261 17.7864C91.0699 15.8477 86.7789 16.9989 84.8413 20.3547C82.9035 23.711 84.0534 28.0022 87.4095 29.9397L112.051 44.1661C113.156 44.8042 114.362 45.1074 115.553 45.1074Z" fill="#4285F4"/>
<path d="M140.064 45.1074C141.255 45.1074 142.461 44.8042 143.566 44.1661L168.207 29.9397L151.031 23.6521L136.549 32.0129C133.193 33.9504 132.043 38.242 133.981 41.5979C135.281 43.8488 137.639 45.1074 140.064 45.1074Z" fill="#FBBC04"/>
<path d="M164.692 30.8811C167.117 30.8811 169.476 29.6229 170.775 27.3715C172.713 24.0156 171.563 19.7244 168.207 17.7866L143.566 3.55973C140.21 1.62225 135.919 2.77169 133.981 6.12796C132.043 9.48386 133.193 13.7751 136.549 15.7129L161.191 29.9398C162.295 30.5775 163.502 30.8811 164.692 30.8811Z" fill="#0F9D58"/>
</svg>
