<svg width="32" height="32" viewBox="0 0 36 36" fill="none" xmlns="http://www.w3.org/2000/svg">
<path d="M12.0411 28.7184C12.0411 28.8629 11.8742 28.9785 11.6637 28.9785C11.4242 29.0002 11.2573 28.8846 11.2573 28.7184C11.2573 28.5738 11.4242 28.4582 11.6347 28.4582C11.8524 28.4365 12.0411 28.5521 12.0411 28.7184ZM9.78387 28.3932C9.73306 28.5377 9.87823 28.7039 10.096 28.7473C10.2847 28.8195 10.5024 28.7473 10.546 28.6027C10.5895 28.4582 10.4516 28.292 10.2339 28.227C10.0452 28.1764 9.83468 28.2486 9.78387 28.3932ZM12.9919 28.2703C12.7815 28.3209 12.6363 28.4582 12.6581 28.6244C12.6798 28.7689 12.8685 28.8629 13.0863 28.8123C13.2968 28.7617 13.4419 28.6244 13.4202 28.4799C13.3984 28.3426 13.2024 28.2486 12.9919 28.2703ZM17.7677 0.578125C7.70081 0.578125 0 8.1877 0 18.2109C0 26.2252 5.06613 33.0832 12.3024 35.4969C13.2315 35.6631 13.5581 35.0922 13.5581 34.6225C13.5581 34.1744 13.5363 31.7029 13.5363 30.1854C13.5363 30.1854 8.45564 31.2693 7.38871 28.0318C7.38871 28.0318 6.56129 25.9289 5.37097 25.3869C5.37097 25.3869 3.70887 24.2523 5.4871 24.274C5.4871 24.274 7.29435 24.4186 8.28871 26.1385C9.87823 28.9279 12.5419 28.1258 13.5798 27.6488C13.7468 26.4926 14.2185 25.6904 14.7411 25.2135C10.6839 24.7654 6.59032 24.1801 6.59032 17.2281C6.59032 15.2408 7.14194 14.2436 8.30323 12.9717C8.11452 12.502 7.49758 10.5652 8.49193 8.06484C10.0089 7.59512 13.5 10.016 13.5 10.016C14.9516 9.61133 16.5121 9.40176 18.0581 9.40176C19.604 9.40176 21.1645 9.61133 22.6161 10.016C22.6161 10.016 26.1073 7.58789 27.6242 8.06484C28.6185 10.5725 28.0016 12.502 27.8129 12.9717C28.9742 14.2508 29.6855 15.248 29.6855 17.2281C29.6855 24.2018 25.4105 24.7582 21.3532 25.2135C22.021 25.7844 22.5871 26.8684 22.5871 28.5666C22.5871 31.002 22.5653 34.0154 22.5653 34.608C22.5653 35.0777 22.8992 35.6486 23.821 35.4824C31.079 33.0832 36 26.2252 36 18.2109C36 8.1877 27.8347 0.578125 17.7677 0.578125ZM7.05484 25.5025C6.96048 25.5748 6.98226 25.741 7.10565 25.8783C7.22177 25.9939 7.38871 26.0445 7.48306 25.9506C7.57742 25.8783 7.55565 25.7121 7.43226 25.5748C7.31613 25.4592 7.14919 25.4086 7.05484 25.5025ZM6.27097 24.9172C6.22016 25.0111 6.29274 25.1268 6.4379 25.199C6.55403 25.2713 6.69919 25.2496 6.75 25.1484C6.80081 25.0545 6.72823 24.9389 6.58306 24.8666C6.4379 24.8232 6.32177 24.8449 6.27097 24.9172ZM8.62258 27.4898C8.50645 27.5838 8.55 27.8006 8.71694 27.9379C8.88387 28.1041 9.09435 28.1258 9.18871 28.0102C9.28306 27.9162 9.23952 27.6994 9.09435 27.5621C8.93468 27.3959 8.71694 27.3742 8.62258 27.4898ZM7.79516 26.4275C7.67903 26.4998 7.67903 26.6877 7.79516 26.8539C7.91129 27.0201 8.10726 27.0924 8.20161 27.0201C8.31774 26.9262 8.31774 26.7383 8.20161 26.5721C8.1 26.4059 7.91129 26.3336 7.79516 26.4275Z" fill="black"/>
</svg>
