<svg width="32" height="33" viewBox="0 0 32 33" fill="none" xmlns="http://www.w3.org/2000/svg">
<path d="M28.5714 0.375H3.42857C1.53571 0.375 0 1.91071 0 3.80357V28.9464C0 30.8393 1.53571 32.375 3.42857 32.375H28.5714C30.4643 32.375 32 30.8393 32 28.9464V3.80357C32 1.91071 30.4643 0.375 28.5714 0.375ZM19.8071 27.7821C19.2071 27.8893 18.9857 27.5179 18.9857 27.2107C18.9857 26.825 19 24.8536 19 23.2607C19 22.1464 18.6286 21.4393 18.1929 21.0679C20.8357 20.775 23.6214 20.4107 23.6214 15.8464C23.6214 14.5464 23.1571 13.8964 22.4 13.0607C22.5214 12.7536 22.9286 11.4893 22.2786 9.84643C21.2857 9.53929 19.0143 11.125 19.0143 11.125C18.0714 10.8607 17.05 10.725 16.0429 10.725C15.0357 10.725 14.0143 10.8607 13.0714 11.125C13.0714 11.125 10.8 9.53929 9.80714 9.84643C9.15714 11.4821 9.55714 12.7464 9.68571 13.0607C8.92857 13.8964 8.57143 14.5464 8.57143 15.8464C8.57143 20.3893 11.2357 20.775 13.8786 21.0679C13.5357 21.375 13.2286 21.9036 13.1214 22.6607C12.4429 22.9679 10.7071 23.4964 9.67143 21.6679C9.02143 20.5393 7.85 20.4464 7.85 20.4464C6.69286 20.4321 7.77143 21.175 7.77143 21.175C8.54286 21.5321 9.08571 22.9036 9.08571 22.9036C9.77857 25.025 13.0929 24.3107 13.0929 24.3107C13.0929 25.3036 13.1071 26.9179 13.1071 27.2107C13.1071 27.5179 12.8929 27.8893 12.2857 27.7821C7.57143 26.2036 4.27143 21.7179 4.27143 16.475C4.27143 9.91786 9.28572 4.93929 15.8429 4.93929C22.4 4.93929 27.7143 9.91786 27.7143 16.475C27.7214 21.7179 24.5214 26.2107 19.8071 27.7821ZM12.8 23.4179C12.6643 23.4464 12.5357 23.3893 12.5214 23.2964C12.5071 23.1893 12.6 23.0964 12.7357 23.0679C12.8714 23.0536 13 23.1107 13.0143 23.2036C13.0357 23.2964 12.9429 23.3893 12.8 23.4179ZM12.1214 23.3536C12.1214 23.4464 12.0143 23.525 11.8714 23.525C11.7143 23.5393 11.6071 23.4607 11.6071 23.3536C11.6071 23.2607 11.7143 23.1821 11.8571 23.1821C11.9929 23.1679 12.1214 23.2464 12.1214 23.3536ZM11.1429 23.275C11.1143 23.3679 10.9714 23.4107 10.85 23.3679C10.7143 23.3393 10.6214 23.2321 10.65 23.1393C10.6786 23.0464 10.8214 23.0036 10.9429 23.0321C11.0857 23.075 11.1786 23.1821 11.1429 23.275ZM10.2643 22.8893C10.2 22.9679 10.0643 22.9536 9.95714 22.8464C9.85 22.7536 9.82143 22.6179 9.89286 22.5536C9.95714 22.475 10.0929 22.4893 10.2 22.5964C10.2929 22.6893 10.3286 22.8321 10.2643 22.8893ZM9.61429 22.2393C9.55 22.2821 9.42857 22.2393 9.35 22.1321C9.27143 22.025 9.27143 21.9036 9.35 21.8536C9.42857 21.7893 9.55 21.8393 9.61429 21.9464C9.69286 22.0536 9.69286 22.1821 9.61429 22.2393ZM9.15 21.5464C9.08571 21.6107 8.97857 21.575 8.9 21.5036C8.82143 21.4107 8.80714 21.3036 8.87143 21.2536C8.93571 21.1893 9.04286 21.225 9.12143 21.2964C9.2 21.3893 9.21429 21.4964 9.15 21.5464ZM8.67143 21.0179C8.64286 21.0821 8.55 21.0964 8.47143 21.0464C8.37857 21.0036 8.33571 20.925 8.36429 20.8607C8.39286 20.8179 8.47143 20.7964 8.56429 20.8321C8.65714 20.8821 8.7 20.9607 8.67143 21.0179Z" fill="black"/>
</svg>
