<svg fill="#000000" xmlns="http://www.w3.org/2000/svg" viewBox="0 0 32 32" width="32px" height="32px"><circle cx="11.75" cy="21.75" r="1.75"/><circle cx="14.25" cy="13.5" r="1.75"/><circle cx="20.75" cy="19.25" r="1.75"/><path d="M11.75,20.5c0.141,0,0.271,0.037,0.398,0.08C10.844,19.09,10,16.761,10,14.141C10,9.652,12.468,6,15.5,6	c2.17,0,4.045,1.875,4.939,4.583c0.772,0.228,1.539,0.516,2.286,0.875C21.852,7.166,18.948,4,15.5,4C11.364,4,8,8.549,8,14.141	c0,3.001,0.974,5.693,2.512,7.552C10.543,21.03,11.08,20.5,11.75,20.5z"/><path d="M20.745,20.5c-0.467,0-0.859-0.268-1.073-0.648c-0.654,2.01-2.301,4.09-4.6,5.505c-2.352,1.446-4.979,1.982-7.029,1.434	c-1.179-0.315-2.068-0.973-2.571-1.901c-0.941-1.737-0.374-4.159,1.212-6.289c-0.246-0.785-0.435-1.606-0.548-2.462	c-2.904,2.974-3.983,6.82-2.421,9.704c0.772,1.424,2.089,2.42,3.811,2.881c0.689,0.185,1.425,0.274,2.186,0.274	c2.076,0,4.349-0.672,6.405-1.938c2.979-1.832,4.978-4.491,5.64-7.118C21.533,20.27,21.174,20.5,20.745,20.5z"/><path d="M23.113,13.94c-2.809-1.729-6.021-2.35-8.591-1.663c-0.017,0.005-0.031,0.013-0.048,0.018	c0.579,0.109,1.026,0.594,1.026,1.205c0,0.249-0.091,0.467-0.216,0.662c2.015-0.447,4.522,0.092,6.783,1.482	c3.849,2.368,5.891,6.602,4.459,9.245c-0.504,0.929-1.392,1.586-2.571,1.901c-1.215,0.325-2.63,0.26-4.07-0.138	c-0.556,0.533-1.174,1.026-1.83,1.492c1.417,0.558,2.865,0.854,4.23,0.854c0.761,0,1.497-0.09,2.186-0.274	c1.722-0.461,3.04-1.457,3.811-2.881C30.269,22.174,27.998,16.945,23.113,13.94z"/></svg>