<svg width="33" height="32" viewBox="0 0 33 32" fill="none" xmlns="http://www.w3.org/2000/svg">
<path d="M4.58259 27.4286V27.9286H5.08259H9.97366H9.98103H10.481V27.4286V12.1571V11.6571H9.98103H5.08259H4.58259V12.1571V27.4286ZM28.3078 27.9286H28.8078V27.4286V19.0571C28.8078 16.9876 28.5819 15.0386 27.6478 13.6024C26.6815 12.1165 25.0291 11.2786 22.4371 11.2786C20.5992 11.2786 19.1719 11.9802 18.2375 12.8776V12.1571V11.6571H17.7375H13.0453H12.5453V12.1571V27.4286V27.9286H13.0453H17.9364H18.4364V27.4286V19.8714C18.4364 18.8851 18.5379 18.0202 18.8847 17.4107C19.0515 17.1177 19.2742 16.8858 19.5774 16.7231C19.884 16.5585 20.3009 16.45 20.8754 16.45C21.415 16.45 21.7778 16.583 22.0326 16.7707C22.2908 16.9608 22.4809 17.2386 22.618 17.5986C22.9018 18.3435 22.9167 19.3149 22.9167 20.2198V27.4286V27.9286H23.4167H28.3078ZM2.34978 0.5H30.6429C31.6737 0.5 32.5 1.32226 32.5 2.30714V29.6929C32.5 30.6777 31.6737 31.5 30.6429 31.5H2.34978C1.32103 31.5 0.5 30.6798 0.5 29.6929V2.30714C0.5 1.32024 1.32103 0.5 2.34978 0.5ZM4.19219 7.32143C4.19219 9.12542 5.69677 10.5714 7.52812 10.5714C9.35863 10.5714 10.8641 9.13339 10.8641 7.32143C10.8641 5.51661 9.35126 4.07143 7.52812 4.07143C5.69677 4.07143 4.19219 5.51744 4.19219 7.32143Z" fill="black" stroke="black"/>
</svg>
