<svg width="32" height="32" viewBox="0 0 35 38" fill="none" xmlns="http://www.w3.org/2000/svg">
<path d="M17.7956 0.981934C27.5852 0.981934 35.5496 9.04593 35.5496 18.9999C35.5496 28.9539 27.5852 37.0179 17.7956 37.0179C8.00593 37.0179 0 28.9119 0 18.9999C0 9.08793 7.96444 0.981934 17.7956 0.981934ZM24.1422 13.2039C23.9348 13.3299 23.8104 13.6239 23.603 13.6659C23.6859 13.6239 23.8104 13.2039 23.8933 13.1199C24.0178 12.9519 24.2252 12.8679 24.3911 12.7419C24.8059 12.6159 25.1793 12.5319 25.5941 12.4899C26.0089 12.4059 26.4652 12.4059 26.797 12.7419C26.7141 12.6579 27.2533 12.1539 27.3363 12.1539C27.5437 12.0279 27.8756 12.0699 28.0415 11.8599C28.083 11.8179 28.083 11.3559 28.083 11.3559C27.6681 11.3979 27.5437 11.0199 27.5437 10.6839C27.5437 10.7259 27.4607 10.8099 27.3778 10.8939C27.4193 10.5159 26.963 10.8099 26.797 10.7259C26.2578 10.5999 26.3407 10.2219 26.1748 9.84393C26.0919 9.63393 25.843 9.54993 25.76 9.33993C25.6356 9.21393 25.5941 8.87793 25.3867 8.87793C25.2622 8.83593 25.0133 9.38193 24.9719 9.33993C24.7644 9.21393 24.64 9.38193 24.4741 9.46593C24.3496 9.59193 24.2252 9.50793 24.1007 9.59193C24.5156 9.46593 23.9348 9.21393 23.6859 9.25593C24.0178 9.17193 23.8519 8.83593 23.6859 8.66793H23.8104C23.7689 8.45793 23.1052 8.24793 22.8978 8.12193C22.6904 7.99593 21.5704 7.74393 21.363 7.86993C21.0726 8.03793 21.4044 8.49993 21.4044 8.75193C21.4459 9.04593 21.1556 9.08793 21.1556 9.33993C21.1556 9.71793 21.8607 9.67593 21.6948 10.2219C21.5704 10.5159 21.1556 10.5999 20.9481 10.8519C20.7822 11.1039 20.9896 11.5239 21.1556 11.6919C21.363 11.8179 20.8237 12.0699 20.7822 12.1119C20.3674 12.2799 20.077 11.6919 19.9941 11.3559C19.9111 11.1039 19.8696 10.8099 19.6207 10.6419C19.4548 10.5999 19.04 10.5159 18.957 10.6839C18.7911 10.3059 18.2933 10.1799 18.003 10.0539C17.5052 9.88593 17.1319 9.88593 16.6341 9.96993C16.8 9.92793 16.5926 9.21393 16.2193 9.33993C16.3022 9.08793 16.2607 8.83593 16.3022 8.62593C16.3852 8.41593 16.4681 8.24793 16.5926 8.07993C16.6341 7.99593 17.1733 7.44993 17.0074 7.40793C17.3807 7.44993 17.837 7.49193 18.1689 7.15593C18.3763 6.94593 18.4593 6.60993 18.6667 6.35793C18.957 6.02193 19.3304 6.44193 19.6622 6.48393C20.1185 6.48393 20.077 5.97993 19.8281 5.76993C20.16 5.76993 19.8696 5.22393 19.7037 5.13993C19.4963 5.05593 18.7081 5.26593 19.1644 5.43393C19.04 5.39193 18.5007 6.56793 18.1689 5.97993C18.0859 5.85393 18.0444 5.39193 17.837 5.34993C17.6296 5.34993 17.5052 5.55993 17.4637 5.68593C17.5881 5.39193 16.8 5.18193 16.6341 5.18193C17.0074 4.92993 16.717 4.67793 16.4681 4.55193C16.2607 4.42593 15.68 4.34193 15.5141 4.50993C15.0993 5.05593 16.0119 5.13993 16.2193 5.26593C16.3022 5.30793 16.5926 5.47593 16.4267 5.60193C16.2607 5.64393 15.8459 5.76993 15.8044 5.85393C15.68 6.06393 15.9704 6.31593 15.763 6.52593C15.5556 6.31593 15.5556 5.97993 15.3896 5.72793C15.597 5.97993 14.56 5.85393 14.6015 5.85393C14.2281 5.85393 13.6889 6.06393 13.44 5.72793C13.3985 5.64393 13.3985 5.09793 13.523 5.22393C13.3156 5.05593 13.1911 4.88793 13.0252 4.80393C12.2785 5.05593 11.5733 5.39193 10.8681 5.76993C10.9511 5.76993 11.0341 5.76993 11.117 5.72793C11.3244 5.64393 11.4904 5.55993 11.6563 5.43393C11.9052 5.34993 12.403 5.05593 12.6519 5.26593C12.6519 5.22393 12.7348 5.18193 12.7763 5.18193C12.9007 5.34993 13.0667 5.55993 13.2326 5.76993C13.0252 5.64393 12.7348 5.68593 12.5274 5.72793C12.3615 5.76993 12.0711 5.81193 12.0296 6.02193C12.0711 6.14793 12.1956 6.31593 12.1126 6.44193C11.8222 6.23193 11.6148 5.85393 11.2 5.81193C10.9926 5.81193 10.8267 5.81193 10.6607 5.85393C8.46222 7.07193 6.59556 8.87793 5.22667 11.0619C5.30963 11.1459 5.43407 11.2299 5.51704 11.2299C5.72444 11.3139 5.51704 11.9859 5.93185 11.6499C6.09778 11.7339 6.09778 11.9019 6.01481 12.0699C6.0563 12.0699 6.96889 12.6579 7.05185 12.6999C7.21778 12.8679 7.46667 13.0359 7.50815 13.2039C7.59111 13.3719 7.42518 13.5399 7.30074 13.6239C7.25926 13.5819 6.92741 13.2459 6.88593 13.3299C6.80296 13.4559 6.88593 14.0859 7.13481 14.0439C6.76148 14.0859 6.92741 15.5139 6.84444 15.8079C6.84444 15.8499 6.88593 15.8499 6.88593 15.8499C6.80296 16.1019 7.05185 17.1939 7.50815 17.1099C7.21778 17.1519 8.04741 18.2439 8.13037 18.3279C8.46222 18.5379 8.79407 18.6639 9.00148 18.9579C9.25037 19.2939 9.25037 19.7979 9.58222 20.0499C9.45778 20.3439 10.0385 20.6379 10.0385 21.0579C9.99704 21.0999 9.95555 21.0999 9.91407 21.0999C10.0385 21.4359 10.4533 21.4359 10.6193 21.7299C10.7022 21.9399 10.6193 22.3599 10.9096 22.2759C10.9926 21.7719 10.6193 21.2259 10.3704 20.8059C10.2459 20.5959 10.08 20.3859 9.99704 20.1339C9.87259 19.9239 9.83111 19.6719 9.74815 19.4199C9.83111 19.4619 10.3289 19.6719 10.2874 19.7139C10.1215 20.1759 11.0341 21.0159 11.283 21.3099C11.3659 21.3939 11.9052 22.1079 11.6148 22.1079C11.9052 22.1079 12.32 22.5699 12.4859 22.7799C12.6933 23.1579 12.6519 23.5779 12.7763 23.9559C12.9007 24.4179 13.5644 24.6279 13.9378 24.8379C14.2696 25.0059 14.5185 25.2579 14.8504 25.3839C15.3481 25.5519 15.4726 25.3839 15.8874 25.3419C16.4681 25.2159 16.5511 25.8879 17.0489 26.1819C17.3393 26.3499 18.003 26.5599 18.2933 26.4339C18.1689 26.4759 18.7911 27.4419 18.8326 27.4839C19.04 27.7779 19.4548 27.9039 19.6622 28.1979C19.7452 28.1559 19.8281 28.0719 19.8281 27.9879C19.7452 28.2399 20.2015 28.7439 20.4089 28.7019C20.6578 28.6599 20.7407 28.1559 20.7407 27.9459C20.2844 28.1979 19.8696 27.9879 19.6207 27.5259C19.5793 27.3999 19.2059 26.7699 19.4963 26.7699C19.9526 26.7699 19.6622 26.3919 19.6207 26.0559C19.5793 25.7199 19.2474 25.5519 19.0815 25.2579C18.957 25.5519 18.4593 25.4679 18.3348 25.2159C18.3348 25.2999 18.2519 25.4259 18.2519 25.5099C18.1689 25.5099 18.0444 25.5519 17.92 25.4679C17.9615 25.2159 18.003 24.8379 18.0444 24.5439C18.1689 24.1239 18.957 23.3259 17.9615 23.3679C17.5881 23.3679 17.4637 23.5359 17.3393 23.8299C17.2148 24.1239 17.2563 24.3759 16.9659 24.5019C16.7585 24.5859 16.0533 24.5439 15.8459 24.4179C15.3896 24.1659 15.0993 23.3679 15.0993 22.9059C15.0578 22.2339 15.3896 21.6879 15.0993 21.0999C15.2237 20.9739 15.3896 20.7639 15.5141 20.6379C15.68 20.5539 15.8459 20.7219 15.8874 20.4279C15.8459 20.3859 15.763 20.3019 15.7215 20.3019C16.0533 20.4279 16.717 20.0499 17.0074 20.3019C17.2148 20.4279 17.4222 20.4699 17.5052 20.2179C17.5467 20.1759 17.3807 19.8819 17.4637 19.7139C17.5052 20.0919 17.7956 20.1759 18.1274 19.9239C18.2519 20.0499 18.6252 20.0079 18.8741 20.1339C19.1644 20.3019 19.2059 20.5539 19.4963 20.2179C19.6622 20.5119 19.7037 20.5119 19.7867 20.7639C19.8281 21.0159 19.9941 21.6879 20.2015 21.8139C20.6993 22.1079 20.5748 21.3099 20.5333 21.0159C20.4919 20.9739 20.4918 20.2179 20.4918 20.2179C19.7452 20.0499 20.0356 19.4619 20.4504 19.0839C20.4919 18.9999 21.0311 18.8319 21.28 18.6639C21.4874 18.4539 21.7363 18.1179 21.6119 17.8239C21.7363 17.8239 21.8193 17.7399 21.8607 17.6139C21.8193 17.5719 21.5289 17.3619 21.4874 17.3619C21.6533 17.2779 21.6119 17.1519 21.5289 16.9839C21.7778 16.8579 21.6533 16.6059 21.8607 16.5219C22.1511 16.8579 22.6489 16.4799 22.4 16.1859C22.6074 15.8499 23.1467 16.0179 23.2711 15.7239C23.6444 15.8079 23.3956 15.3459 23.5615 15.0939C23.7274 14.8839 24.0178 14.8839 24.2252 14.7579C24.2252 14.7999 24.8059 14.4639 24.5985 14.4219C25.0133 14.4639 25.8015 14.0439 25.1793 13.7079C25.2622 13.4979 24.9719 13.4139 24.7644 13.3299C24.9304 13.2879 25.1378 13.4139 25.2622 13.2879C25.5941 13.0779 25.3867 12.9939 25.1378 12.9099C24.8059 12.8259 24.3911 13.0359 24.1422 13.2039ZM20.3674 33.7839C23.52 33.1959 26.3407 31.5999 28.4563 29.3319C28.3319 29.2059 28.083 29.2479 27.8756 29.1639C27.7096 29.0799 27.5852 28.9959 27.3363 28.9539C27.3778 28.4919 26.88 28.3239 26.5481 28.0719C26.2578 27.8619 26.0504 27.6099 25.6356 27.6939C25.5941 27.6939 25.1378 27.8619 25.2207 27.9879C24.8889 27.6939 24.7644 27.5679 24.3911 27.4419C24.0178 27.3579 23.7689 26.8539 23.3956 27.2739C23.1881 27.4839 23.2711 27.7779 23.1881 27.9459C22.8978 27.6939 23.4785 27.3999 23.2296 27.1059C22.9807 26.7699 22.483 27.3159 22.2341 27.4419C22.1096 27.5679 21.9437 27.6099 21.8607 27.7779C21.7363 27.9039 21.6948 28.1559 21.6119 28.2819C21.5289 28.1139 21.1556 28.1559 21.1141 28.0299C21.197 28.5759 21.197 29.1639 21.3215 29.7099C21.4044 30.0459 21.3215 30.5919 21.0311 30.8439C20.7407 31.0959 20.4089 31.3899 20.3674 31.8099C20.3259 32.0619 20.4089 32.3139 20.6578 32.3979C20.6578 32.7339 20.2844 33.0279 20.2844 33.4059C20.2844 33.4059 20.3259 33.6579 20.3674 33.7839Z" fill="black"/>
</svg>
